<svg xmlns="http://www.w3.org/2000/svg" width="32" height="32" viewBox="0 0 24 24"><path fill="currentColor" d="M10 12q-1.65 0-2.825-1.175T6 8q0-1.65 1.175-2.825T10 4q1.65 0 2.825 1.175T14 8q0 1.65-1.175 2.825T10 12m-8 6v-.8q0-.825.425-1.55t1.175-1.1q1.275-.65 2.875-1.1T10 13h.35q.15 0 .3.05q-.2.45-.337.938T10.1 15H10q-1.775 0-3.187.45t-2.313.9q-.225.125-.363.35T4 17.2v.8h6.3q.15.525.4 1.038t.55.962H4q-.825 0-1.412-.587T2 18m13.85 2.2l-.15-.7q-.3-.125-.562-.262T14.6 18.9l-.725.225q-.325.1-.637-.025t-.488-.4l-.2-.35q-.175-.3-.125-.65t.325-.575l.55-.475q-.05-.35-.05-.65t.05-.65l-.55-.475q-.275-.225-.325-.563t.125-.637l.225-.375q.175-.275.475-.4t.625-.025l.725.225q.275-.2.538-.338t.562-.262l.15-.725q.075-.35.338-.562T16.8 11h.4q.35 0 .613.225t.337.575l.15.7q.3.125.562.275t.538.375l.675-.225q.35-.125.675 0t.5.425l.2.35q.175.3.125.65t-.325.575l-.55.475q.05.3.05.625t-.05.625l.55.475q.275.225.325.563t-.125.637l-.225.375q-.175.275-.475.4t-.625.025L19.4 18.9q-.275.2-.538.337t-.562.263l-.15.725q-.075.35-.337.563T17.2 21h-.4q-.35 0-.612-.225t-.338-.575M17 18q.825 0 1.413-.587T19 16q0-.825-.587-1.412T17 14q-.825 0-1.412.588T15 16q0 .825.588 1.413T17 18m-7-8q.825 0 1.413-.587T12 8q0-.825-.587-1.412T10 6q-.825 0-1.412.588T8 8q0 .825.588 1.413T10 10m.3 8"/></svg>